<svg xmlns="http://www.w3.org/2000/svg" width="20.25" height="20.25" viewBox="0 0 20.25 20.25">
  <path id="Path_4431" data-name="Path 4431" d="M22.125,17.063a12.78,12.78,0,0,1-4.016-.641,1.148,1.148,0,0,0-1.148.27l-2.475,2.475a16.959,16.959,0,0,1-7.414-7.4L9.547,9.277a1.1,1.1,0,0,0,.281-1.136,12.78,12.78,0,0,1-.641-4.016A1.128,1.128,0,0,0,8.063,3H4.125A1.128,1.128,0,0,0,3,4.125,19.123,19.123,0,0,0,22.125,23.25a1.128,1.128,0,0,0,1.125-1.125V18.188A1.128,1.128,0,0,0,22.125,17.063ZM13.125,3V14.25L16.5,10.875h6.75V3Z" transform="translate(-3 -3)" fill="#280"/>
</svg>
