<svg xmlns="http://www.w3.org/2000/svg" width="36.92" height="41.083" viewBox="0 0 36.92 41.083">
  <g id="head-set" transform="translate(-11.343 -9.458)">
    <path id="Path_4527" data-name="Path 4527" d="M35.657,13.373A15.834,15.834,0,0,1,39.6,42.4V49.79" fill="none" stroke="#000" stroke-linecap="round" stroke-linejoin="round" stroke-width="1.5"/>
    <path id="Path_4528" data-name="Path 4528" d="M15.746,36.616,14.105,36.2a2.642,2.642,0,0,1-1.55-4.023l3.19-4.8V26.061c0-6.231,5.027-11.455,11.831-12.843" fill="none" stroke="#000" stroke-linecap="round" stroke-linejoin="round" stroke-width="1.5"/>
    <path id="Path_4529" data-name="Path 4529" d="M23.707,49.792V45.853l-1.765.294a5.2,5.2,0,0,1-2.181-.093" fill="none" stroke="#000" stroke-linecap="round" stroke-linejoin="round" stroke-width="1.5"/>
    <path id="Path_4530" data-name="Path 4530" d="M31.593,35.278a6.6,6.6,0,1,0-6.574-6.6A6.585,6.585,0,0,0,31.593,35.278Z" fill="none" stroke="#280" stroke-linecap="round" stroke-linejoin="round" stroke-width="1.5"/>
    <path id="Path_4531" data-name="Path 4531" d="M27.649,23.4V11.528a1.317,1.317,0,0,1,1.315-1.319h5.259a1.317,1.317,0,0,1,1.315,1.319V23.4" fill="none" stroke="#280" stroke-linecap="round" stroke-linejoin="round" stroke-width="1.5"/>
    <path id="Path_4532" data-name="Path 4532" d="M31.593,28.68A13.171,13.171,0,0,1,18.446,41.875H15.817" fill="none" stroke="#280" stroke-linecap="round" stroke-linejoin="round" stroke-width="1.5"/>
  </g>
</svg>
