<svg xmlns="http://www.w3.org/2000/svg" width="40.144" height="40.144" viewBox="0 0 40.144 40.144">
  <g id="icon60_rates" transform="translate(-10.083 -10.083)">
    <g id="Group" transform="translate(10 10)">
      <g id="common-file-text-search">
        <circle id="Oval" cx="7.548" cy="7.548" r="7.548" transform="translate(20.833 20.833)" fill="none" stroke="#44b02b" stroke-linecap="round" stroke-linejoin="round" stroke-width="1.5"/>
        <path id="Shape" d="M39.167,39.167l-5.413-5.413" fill="none" stroke="#44b02b" stroke-linecap="round" stroke-linejoin="round" stroke-width="1.5"/>
        <path id="Shape-2" data-name="Shape" d="M7.5,14.167H23.333" fill="none" stroke="#000" stroke-linecap="round" stroke-linejoin="round" stroke-width="1.5"/>
        <path id="Shape-3" data-name="Shape" d="M7.5,19.167h10" fill="none" stroke="#000" stroke-linecap="round" stroke-linejoin="round" stroke-width="1.5"/>
        <path id="Shape-4" data-name="Shape" d="M7.5,9.167H19.167" fill="none" stroke="#000" stroke-linecap="round" stroke-linejoin="round" stroke-width="1.5"/>
        <path id="Shape-5" data-name="Shape" d="M7.5,24.167h6.667" fill="none" stroke="#000" stroke-linecap="round" stroke-linejoin="round" stroke-width="1.5"/>
        <path id="Shape-6" data-name="Shape" d="M7.5,29.167h6.667" fill="none" stroke="#000" stroke-linecap="round" stroke-linejoin="round" stroke-width="1.5"/>
        <path id="Shape-7" data-name="Shape" d="M20.833,39.167H2.5A1.667,1.667,0,0,1,.833,37.5V2.5A1.667,1.667,0,0,1,2.5.833H24.655a1.667,1.667,0,0,1,1.178.488L32.012,7.5A1.667,1.667,0,0,1,32.5,8.678v7.155" fill="none" stroke="#000" stroke-linecap="round" stroke-linejoin="round" stroke-width="1.5"/>
      </g>
    </g>
  </g>
</svg>
