<svg xmlns="http://www.w3.org/2000/svg" width="228.895" height="27.977" viewBox="0 0 228.895 27.977">
  <g id="Group_5866" data-name="Group 5866" transform="translate(0.037 -24.216)">
    <g id="Group_5863" data-name="Group 5863" transform="translate(129.348 32.035)">
      <path id="Path_4418" data-name="Path 4418" d="M103.737,40.75c1.252,0,2.339-.476,2.339-1.624,0-2.723-6.262-1.025-6.262-5.326,0-2.324,1.822-3.571,4.1-3.571a6.672,6.672,0,0,1,4.017,1.35l-.9,1.408a5.448,5.448,0,0,0-3-.978c-1.191,0-2.2.544-2.2,1.631,0,2.692,6.3.915,6.3,5.309,0,2.433-1.924,3.619-4.305,3.619A6.839,6.839,0,0,1,99.468,41l.915-1.445A5.543,5.543,0,0,0,103.737,40.75Z" transform="translate(-99.468 -30.229)" fill="#5a5a5a"/>
      <path id="Path_4419" data-name="Path 4419" d="M110.011,30.36h7.551v1.775h-5.528v3.292h4.808v1.764h-4.808v3.39H117.7v1.775h-7.69Z" transform="translate(-96.302 -30.19)" fill="#5a5a5a"/>
      <path id="Path_4420" data-name="Path 4420" d="M129.256,41.2a6.879,6.879,0,0,1-4.171,1.367,5.916,5.916,0,0,1-6-6.118,6.034,6.034,0,0,1,6.076-6.221,6.631,6.631,0,0,1,4.084,1.386l-.906,1.413a5.218,5.218,0,0,0-3.039-1,4.17,4.17,0,0,0-4.156,4.383,4.113,4.113,0,0,0,4.114,4.338,5.391,5.391,0,0,0,3.08-.993Z" transform="translate(-93.578 -30.229)" fill="#5a5a5a"/>
      <path id="Path_4421" data-name="Path 4421" d="M137.88,30.36h1.992v7.66a4.7,4.7,0,0,1-9.4.005V30.36H132.5v7.67a2.571,2.571,0,0,0,2.718,2.68,2.517,2.517,0,0,0,2.66-2.68Z" transform="translate(-90.157 -30.19)" fill="#5a5a5a"/>
      <path id="Path_4422" data-name="Path 4422" d="M142.11,30.36h4.336c2.578,0,4.126,1.573,4.126,3.727a3.565,3.565,0,0,1-2.454,3.5l2.893,4.767h-2.4l-2.589-4.5h-1.909v4.5h-2Zm4.069,5.719c1.48,0,2.36-.7,2.36-1.961,0-1.32-.964-1.987-2.36-1.987h-2.065v3.948Z" transform="translate(-86.663 -30.19)" fill="#5a5a5a"/>
      <path id="Path_4423" data-name="Path 4423" d="M152.682,30.36h2.04v12h-2.04Z" transform="translate(-83.488 -30.19)" fill="#5a5a5a"/>
      <path id="Path_4424" data-name="Path 4424" d="M167.189,32.145h-3.633V42.356h-2.044V32.145h-3.633V30.36h9.31Z" transform="translate(-81.928 -30.19)" fill="#5a5a5a"/>
      <path id="Path_4425" data-name="Path 4425" d="M174.081,37.352v5h-2.018V37.362l-4.317-7h2.365l3.008,5.062,3.147-5.062h2.209Z" transform="translate(-78.965 -30.19)" fill="#5a5a5a"/>
    </g>
    <g id="Group_5865" data-name="Group 5865" transform="translate(-0.037 24.216)">
      <g id="Group_5864" data-name="Group 5864">
        <path id="Path_4426" data-name="Path 4426" d="M39.96,41.691a9.351,9.351,0,0,1-7.322,3.616c-4.89,0-8.78-3.5-8.78-8.1a8.218,8.218,0,0,1,8.6-8.115,9.351,9.351,0,0,1,7.323,3.616l-3.252,2.3a4.771,4.771,0,0,0-4.071-2.341A4.551,4.551,0,0,0,27.9,37.191a4.68,4.68,0,0,0,4.747,4.526,5.107,5.107,0,0,0,4.135-2.2Z" transform="translate(7.213 -22.755)" fill="#5a5a5a"/>
        <rect id="Rectangle_3003" data-name="Rectangle 3003" width="4.071" height="22.228" transform="translate(48.981)" fill="#5a5a5a"/>
        <path id="Path_4427" data-name="Path 4427" d="M51.069,41.861a4.851,4.851,0,0,0,4.89-4.669,4.89,4.89,0,0,0-9.768,0,4.825,4.825,0,0,0,4.89,4.669m0-12.771a8.376,8.376,0,0,1,8.78,8.1,8.376,8.376,0,0,1-8.78,8.1c-4.89,0-8.819-3.538-8.819-8.1s3.9-8.1,8.819-8.1" transform="translate(12.74 -22.755)" fill="#5a5a5a"/>
        <path id="Path_4428" data-name="Path 4428" d="M55.287,29.337H60.06l3.863,8.311L68.1,29.337H72.52l-8.6,16.518Z" transform="translate(16.651 -22.678)" fill="#5a5a5a"/>
        <path id="Path_4429" data-name="Path 4429" d="M80.261,35.029a4.031,4.031,0,0,0-3.785-2.51,4.407,4.407,0,0,0-4.032,2.51h7.817Zm2.6,8.181A9.377,9.377,0,0,1,76.879,45.3c-4.89,0-8.819-3.538-8.819-8.1a8.1,8.1,0,0,1,8.454-8.1,7.8,7.8,0,0,1,8.063,8.1v1.159h-12.5a4.915,4.915,0,0,0,4.747,3.5A4.7,4.7,0,0,0,80.4,40.336Zm3.681-6.972c0-3.719,2.835-6.828,7.426-6.828v3.642a3.25,3.25,0,0,0-3.394,3.68v8.246H86.542Z" transform="translate(20.486 -22.752)" fill="#5a5a5a"/>
        <path id="Path_4430" data-name="Path 4430" d="M12.579,31.263a6.308,6.308,0,1,0-6.308,6.269h6.308Zm1.822,0a6.308,6.308,0,1,1,6.308,6.269H14.4Zm0,14.372a6.308,6.308,0,1,0,6.308-6.269H14.4Zm-8.129,4.5a4.528,4.528,0,0,0,4.539-4.5v-4.5H6.271a4.5,4.5,0,0,0,0,9Zm6.308-4.5a6.308,6.308,0,1,1-6.308-6.269h6.308Z" transform="translate(0.037 -24.005)" fill="#280"/>
      </g>
    </g>
  </g>
</svg>
