<svg id="Group_5866" data-name="Group 5866" xmlns="http://www.w3.org/2000/svg" width="186.108" height="22.747" viewBox="0 0 186.108 22.747">
  <g id="Group_5863" data-name="Group 5863" transform="translate(105.2 6.357)">
    <path id="Path_4418" data-name="Path 4418" d="M102.939,38.783c1.018,0,1.9-.387,1.9-1.32,0-2.214-5.092-.833-5.092-4.33,0-1.889,1.481-2.9,3.332-2.9a5.425,5.425,0,0,1,3.266,1.1l-.732,1.145a4.429,4.429,0,0,0-2.441-.8c-.968,0-1.792.442-1.792,1.326,0,2.188,5.124.744,5.124,4.317,0,1.978-1.565,2.942-3.5,2.942a5.56,5.56,0,0,1-3.539-1.271l.744-1.175A4.507,4.507,0,0,0,102.939,38.783Z" transform="translate(-99.468 -30.229)" fill="#5a5a5a"/>
    <path id="Path_4419" data-name="Path 4419" d="M110.011,30.36h6.139V31.8h-4.494V34.48h3.91v1.435h-3.91v2.756h4.607v1.443h-6.252Z" transform="translate(-98.865 -30.221)" fill="#5a5a5a"/>
    <path id="Path_4420" data-name="Path 4420" d="M127.354,39.15a5.593,5.593,0,0,1-3.392,1.111,4.81,4.81,0,0,1-4.881-4.974,4.906,4.906,0,0,1,4.94-5.058,5.391,5.391,0,0,1,3.321,1.127l-.737,1.149a4.243,4.243,0,0,0-2.471-.816,3.39,3.39,0,0,0-3.379,3.564A3.344,3.344,0,0,0,124.1,38.78a4.383,4.383,0,0,0,2.5-.808Z" transform="translate(-98.346 -30.229)" fill="#5a5a5a"/>
    <path id="Path_4421" data-name="Path 4421" d="M136.5,30.36h1.62v6.228a3.824,3.824,0,0,1-7.642,0V30.36h1.649V36.6a2.091,2.091,0,0,0,2.21,2.179A2.047,2.047,0,0,0,136.5,36.6Z" transform="translate(-97.694 -30.221)" fill="#5a5a5a"/>
    <path id="Path_4422" data-name="Path 4422" d="M142.11,30.36h3.526c2.1,0,3.355,1.279,3.355,3.03A2.9,2.9,0,0,1,147,36.238l2.352,3.876H147.4l-2.1-3.66h-1.552v3.66H142.11Zm3.308,4.65c1.2,0,1.919-.572,1.919-1.594,0-1.073-.783-1.615-1.919-1.615h-1.679v3.21Z" transform="translate(-97.028 -30.221)" fill="#5a5a5a"/>
    <path id="Path_4423" data-name="Path 4423" d="M152.682,30.36h1.659v9.754h-1.659Z" transform="translate(-96.423 -30.221)" fill="#5a5a5a"/>
    <path id="Path_4424" data-name="Path 4424" d="M165.449,31.812h-2.954v8.3h-1.662v-8.3h-2.954V30.36h7.57Z" transform="translate(-96.125 -30.221)" fill="#5a5a5a"/>
    <path id="Path_4425" data-name="Path 4425" d="M172.9,36.045v4.069h-1.641V36.053l-3.51-5.693h1.923l2.445,4.116,2.558-4.116h1.8Z" transform="translate(-95.561 -30.221)" fill="#5a5a5a"/>
  </g>
  <g id="Group_5865" data-name="Group 5865">
    <g id="Group_5864" data-name="Group 5864">
      <path id="Path_4426" data-name="Path 4426" d="M36.951,39.334A7.6,7.6,0,0,1,31,42.274c-3.976,0-7.138-2.845-7.138-6.589a6.682,6.682,0,0,1,6.989-6.6,7.6,7.6,0,0,1,5.954,2.94L34.158,33.9a3.879,3.879,0,0,0-3.31-1.9,3.7,3.7,0,0,0-3.7,3.679,3.805,3.805,0,0,0,3.86,3.68,4.153,4.153,0,0,0,3.362-1.787Z" transform="translate(1.405 -23.937)" fill="#5a5a5a"/>
      <rect id="Rectangle_3003" data-name="Rectangle 3003" width="3.31" height="18.073" transform="translate(39.825)" fill="#5a5a5a"/>
      <path id="Path_4427" data-name="Path 4427" d="M49.423,39.472a3.975,3.975,0,1,1,.011,0m0-10.384a6.81,6.81,0,0,1,7.138,6.588,6.81,6.81,0,0,1-7.138,6.589c-3.976,0-7.17-2.877-7.17-6.589s3.173-6.588,7.17-6.588" transform="translate(2.458 -23.937)" fill="#5a5a5a"/>
      <path id="Path_4428" data-name="Path 4428" d="M55.287,29.337h3.881l3.141,6.757L65.7,29.337h3.6l-6.99,13.43Z" transform="translate(3.203 -23.923)" fill="#5a5a5a"/>
      <path id="Path_4429" data-name="Path 4429" d="M77.98,33.919a3.277,3.277,0,0,0-3.078-2.04,3.583,3.583,0,0,0-3.278,2.04H77.98Zm2.114,6.652a7.624,7.624,0,0,1-4.864,1.7c-3.976,0-7.17-2.877-7.17-6.589A6.589,6.589,0,0,1,74.934,29.1a6.344,6.344,0,0,1,6.556,6.588v.942H71.328a4,4,0,0,0,3.86,2.844A3.817,3.817,0,0,0,78.1,38.234ZM83.087,34.9c0-3.024,2.3-5.551,6.038-5.551v2.961A2.642,2.642,0,0,0,86.366,35.3v6.7H83.087Z" transform="translate(3.934 -23.937)" fill="#5a5a5a"/>
      <path id="Path_4430" data-name="Path 4430" d="M10.22,30.076a5.129,5.129,0,1,0-5.129,5.1H10.22Zm1.481,0a5.129,5.129,0,1,1,5.129,5.1H11.7Zm0,11.685a5.129,5.129,0,1,0,5.129-5.1H11.7Zm-6.61,3.659a3.681,3.681,0,0,0,3.691-3.659V38.1H5.092a3.659,3.659,0,0,0,0,7.318Zm5.129-3.659a5.129,5.129,0,1,1-5.129-5.1H10.22Z" transform="translate(0.037 -24.176)" fill="#280"/>
    </g>
  </g>
</svg>
